<svg width="740" height="212" viewBox="0 0 740 212" fill="none" xmlns="http://www.w3.org/2000/svg">
<path d="M672.114 114.311C661.646 114.311 653.429 112.165 647.462 107.873C641.6 103.581 638.669 97.6664 638.669 90.1294C638.669 85.4187 639.873 81.3885 642.28 78.0387C644.688 74.6889 648.299 71.9672 653.115 69.8736C657.93 67.6753 663.897 66.2621 671.015 65.6341L703.676 62.0226C706.293 61.8132 708.229 61.1851 709.485 60.1383C710.742 59.0915 711.37 57.6783 711.37 55.8987V55.7417C711.37 53.4387 710.48 51.5021 708.7 49.9319C706.921 48.3617 704.408 47.1579 701.163 46.3204C698.023 45.483 694.202 45.0642 689.701 45.0642C683.001 45.0642 677.715 45.9017 673.842 47.5766C669.968 49.1468 667.613 51.5021 666.776 54.6425H642.594C643.537 49.1991 645.944 44.5932 649.817 40.8247C653.795 37.0561 659.186 34.1774 665.991 32.1885C672.795 30.1996 680.855 29.2051 690.172 29.2051C700.326 29.2051 708.753 30.3042 715.452 32.5025C722.152 34.7008 727.177 38.0506 730.526 42.5519C733.876 46.9485 735.551 52.4966 735.551 59.1962V112.112H712.469V87.7741L714.981 90.7575C712.574 95.8868 709.381 100.231 705.403 103.79C701.425 107.245 696.662 109.862 691.114 111.641C685.566 113.421 679.233 114.311 672.114 114.311ZM680.594 97.8234C684.885 97.8234 688.863 97.2477 692.527 96.0962C696.296 94.9447 699.593 93.3745 702.42 91.3856C705.246 89.2919 707.444 86.9366 709.014 84.3196C710.585 81.5979 711.37 78.7192 711.37 75.6834V65.7911L715.295 71.4438C713.62 72.386 711.527 73.2234 709.014 73.9562C706.502 74.5843 703.152 75.16 698.965 75.6834L674.47 78.8238C670.806 79.2426 668.084 80.1847 666.305 81.6502C664.525 83.0111 663.635 85 663.635 87.6171C663.635 90.8622 665.048 93.3745 667.875 95.1541C670.806 96.9336 675.045 97.8234 680.594 97.8234Z" fill="#363636"/>
<path d="M526.96 112.112V31.4034H551.142V54.3285L548.943 50.874C551.142 46.0587 554.125 42.0808 557.894 38.9404C561.662 35.6953 566.111 33.2876 571.24 31.7174C576.474 30.0425 582.18 29.2051 588.356 29.2051C594.637 29.2051 600.132 30.0425 604.843 31.7174C609.658 33.3923 613.689 35.9047 616.934 39.2544C620.179 42.4996 622.639 46.5298 624.314 51.3451C626.093 56.0557 626.983 61.4468 626.983 67.5183V112.112H602.645V72.386C602.645 67.1519 601.755 62.703 599.975 59.0391C598.196 55.2706 595.526 52.3919 591.967 50.403C588.408 48.3093 583.907 47.2625 578.463 47.2625C572.811 47.2625 567.943 48.3617 563.86 50.56C559.778 52.7583 556.637 55.794 554.439 59.6672C552.241 63.5404 551.142 67.9894 551.142 73.0141V112.112H526.96Z" fill="#363636"/>
<path d="M486.482 112.113V31.4043H510.663V112.113H486.482ZM486.011 20.0987V0H511.134V20.0987H486.011Z" fill="#363636"/>
<path d="M324.089 112.112V31.4034H348.271V53.2294L345.915 51.1881C347.904 45.7447 350.626 41.4527 354.081 38.3123C357.535 35.0672 361.408 32.7642 365.7 31.4034C369.992 29.9378 374.336 29.2051 378.733 29.2051C383.758 29.2051 388.364 29.9902 392.551 31.5604C396.738 33.0259 400.245 35.4336 403.071 38.7834C406.002 42.1332 407.991 46.4251 409.038 51.6591L405.427 51.3451C406.997 46.0064 409.509 41.7145 412.964 38.4693C416.523 35.2242 420.553 32.8689 425.054 31.4034C429.66 29.9378 434.319 29.2051 439.029 29.2051C445.729 29.2051 451.486 30.6706 456.302 33.6017C461.117 36.4281 464.833 40.4583 467.45 45.6923C470.067 50.9264 471.376 57.3119 471.376 64.8489V112.112H447.194V68.1464C447.194 63.2264 446.461 59.2485 444.996 56.2128C443.635 53.177 441.698 50.9264 439.186 49.4608C436.778 47.9953 433.847 47.2625 430.393 47.2625C426.52 47.2625 423.013 48.1523 419.873 49.9319C416.837 51.7115 414.377 54.2762 412.493 57.626C410.713 60.9757 409.823 65.0583 409.823 69.8736V112.112H385.642V68.1464C385.642 60.8187 384.124 55.5323 381.088 52.2872C378.052 48.9374 373.97 47.2625 368.841 47.2625C364.967 47.2625 361.461 48.1523 358.32 49.9319C355.284 51.7115 352.824 54.2762 350.94 57.626C349.161 60.9757 348.271 65.0583 348.271 69.8736V112.112H324.089Z" fill="#363636"/>
<path d="M247.66 114.314C241.589 114.314 236.197 113.476 231.487 111.801C226.881 110.022 223.008 107.509 219.867 104.264C216.727 101.019 214.319 97.0412 212.644 92.3306C210.969 87.5152 210.132 82.0718 210.132 76.0003V31.4062H234.47V71.1327C234.47 76.262 235.255 80.711 236.826 84.4795C238.5 88.248 241.065 91.1791 244.52 93.2727C247.974 95.2616 252.318 96.2561 257.552 96.2561C263.1 96.2561 267.811 95.1569 271.684 92.9586C275.662 90.6557 278.698 87.6199 280.792 83.8514C282.885 79.9782 283.932 75.5293 283.932 70.5046V31.4062H308.113V112.115H283.932V89.1901L286.287 92.8016C283.147 99.8153 278.227 105.154 271.527 108.818C264.932 112.482 256.977 114.314 247.66 114.314Z" fill="#363636"/>
<path d="M98.1192 112.113V0H123.4V92.6426H200.183V112.113H98.1192Z" fill="#363636"/>
<path d="M705.231 211.456V175.441H709.45L733.271 205.025H731.059V175.441H736.204V211.456H731.985L708.164 181.873H710.376V211.456H705.231Z" fill="#7C7C7C"/>
<path d="M673.134 211.866C670.39 211.866 667.835 211.403 665.468 210.476C663.136 209.55 661.112 208.264 659.397 206.618C657.682 204.937 656.345 202.982 655.384 200.752C654.424 198.523 653.944 196.088 653.944 193.446C653.944 190.805 654.424 188.37 655.384 186.141C656.345 183.911 657.682 181.973 659.397 180.327C661.112 178.646 663.136 177.343 665.468 176.416C667.801 175.49 670.356 175.027 673.134 175.027C675.878 175.027 678.4 175.49 680.698 176.416C683.03 177.308 685.054 178.595 686.769 180.275C688.518 181.922 689.856 183.86 690.782 186.089C691.742 188.319 692.222 190.771 692.222 193.446C692.222 196.122 691.742 198.574 690.782 200.804C689.856 203.033 688.518 204.988 686.769 206.669C685.054 208.316 683.03 209.602 680.698 210.528C678.4 211.42 675.878 211.866 673.134 211.866ZM673.134 207.287C675.124 207.287 676.959 206.944 678.64 206.258C680.355 205.572 681.83 204.611 683.064 203.376C684.333 202.107 685.311 200.632 685.997 198.952C686.717 197.271 687.077 195.436 687.077 193.446C687.077 191.457 686.717 189.622 685.997 187.941C685.311 186.261 684.333 184.803 683.064 183.568C681.83 182.299 680.355 181.321 678.64 180.635C676.959 179.949 675.124 179.606 673.134 179.606C671.111 179.606 669.241 179.949 667.526 180.635C665.846 181.321 664.371 182.299 663.102 183.568C661.833 184.803 660.838 186.261 660.118 187.941C659.432 189.622 659.089 191.457 659.089 193.446C659.089 195.436 659.432 197.271 660.118 198.952C660.838 200.632 661.833 202.107 663.102 203.376C664.371 204.611 665.846 205.572 667.526 206.258C669.241 206.944 671.111 207.287 673.134 207.287Z" fill="#7C7C7C"/>
<path d="M635.804 211.456V175.441H640.949V211.456H635.804Z" fill="#7C7C7C"/>
<path d="M607.614 211.456V179.918H595.266V175.441H625.055V179.918H612.707V211.456H607.614Z" fill="#7C7C7C"/>
<path d="M570.193 211.868C565.46 211.868 561.738 210.513 559.029 207.804C556.319 205.094 554.964 201.132 554.964 195.919V175.441H560.109V195.713C560.109 199.726 560.984 202.659 562.733 204.511C564.517 206.363 567.02 207.289 570.245 207.289C573.503 207.289 576.007 206.363 577.756 204.511C579.54 202.659 580.432 199.726 580.432 195.713V175.441H585.422V195.919C585.422 201.132 584.068 205.094 581.358 207.804C578.682 210.513 574.961 211.868 570.193 211.868Z" fill="#7C7C7C"/>
<path d="M520.182 211.456V175.441H525.327V206.98H544.826V211.456H520.182Z" fill="#7C7C7C"/>
<path d="M488.085 211.866C485.341 211.866 482.786 211.403 480.419 210.476C478.086 209.55 476.063 208.264 474.348 206.618C472.633 204.937 471.295 202.982 470.335 200.752C469.374 198.523 468.894 196.088 468.894 193.446C468.894 190.805 469.374 188.37 470.335 186.141C471.295 183.911 472.633 181.973 474.348 180.327C476.063 178.646 478.086 177.343 480.419 176.416C482.751 175.49 485.307 175.027 488.085 175.027C490.829 175.027 493.35 175.49 495.648 176.416C497.98 177.308 500.004 178.595 501.719 180.275C503.468 181.922 504.806 183.86 505.732 186.089C506.693 188.319 507.173 190.771 507.173 193.446C507.173 196.122 506.693 198.574 505.732 200.804C504.806 203.033 503.468 204.988 501.719 206.669C500.004 208.316 497.98 209.602 495.648 210.528C493.35 211.42 490.829 211.866 488.085 211.866ZM488.085 207.287C490.074 207.287 491.909 206.944 493.59 206.258C495.305 205.572 496.78 204.611 498.015 203.376C499.284 202.107 500.261 200.632 500.947 198.952C501.668 197.271 502.028 195.436 502.028 193.446C502.028 191.457 501.668 189.622 500.947 187.941C500.261 186.261 499.284 184.803 498.015 183.568C496.78 182.299 495.305 181.321 493.59 180.635C491.909 179.949 490.074 179.606 488.085 179.606C486.061 179.606 484.192 179.949 482.477 180.635C480.796 181.321 479.321 182.299 478.052 183.568C476.783 184.803 475.788 186.261 475.068 187.941C474.382 189.622 474.039 191.457 474.039 193.446C474.039 195.436 474.382 197.271 475.068 198.952C475.788 200.632 476.783 202.107 478.052 203.376C479.321 204.611 480.796 205.572 482.477 206.258C484.192 206.944 486.061 207.287 488.085 207.287Z" fill="#7C7C7C"/>
<path d="M445.222 211.866C442.478 211.866 439.854 211.454 437.35 210.631C434.847 209.773 432.874 208.676 431.434 207.338L433.337 203.325C434.709 204.525 436.459 205.52 438.585 206.309C440.712 207.098 442.924 207.492 445.222 207.492C447.315 207.492 449.012 207.252 450.316 206.772C451.619 206.292 452.58 205.64 453.197 204.817C453.814 203.959 454.123 202.999 454.123 201.936C454.123 200.701 453.712 199.706 452.888 198.952C452.099 198.197 451.053 197.597 449.75 197.151C448.481 196.671 447.075 196.259 445.531 195.916C443.988 195.573 442.427 195.179 440.849 194.733C439.306 194.253 437.882 193.652 436.579 192.932C435.31 192.212 434.281 191.251 433.492 190.051C432.703 188.816 432.308 187.238 432.308 185.317C432.308 183.465 432.789 181.767 433.749 180.224C434.744 178.646 436.253 177.394 438.277 176.468C440.335 175.508 442.941 175.027 446.097 175.027C448.189 175.027 450.264 175.302 452.322 175.851C454.38 176.399 456.164 177.188 457.673 178.217L455.975 182.333C454.432 181.304 452.803 180.567 451.088 180.121C449.373 179.641 447.709 179.401 446.097 179.401C444.073 179.401 442.41 179.658 441.106 180.172C439.803 180.687 438.843 181.373 438.225 182.23C437.642 183.088 437.35 184.048 437.35 185.112C437.35 186.381 437.745 187.393 438.534 188.147C439.357 188.902 440.403 189.502 441.672 189.948C442.976 190.394 444.399 190.805 445.943 191.183C447.486 191.526 449.03 191.92 450.573 192.366C452.151 192.812 453.574 193.395 454.843 194.115C456.147 194.836 457.193 195.796 457.982 196.997C458.771 198.197 459.165 199.741 459.165 201.627C459.165 203.445 458.668 205.143 457.673 206.721C456.679 208.264 455.135 209.516 453.043 210.476C450.985 211.403 448.378 211.866 445.222 211.866Z" fill="#7C7C7C"/>
<path d="M386.002 211.456V197.668L387.185 200.858L371.699 175.441H377.204L390.221 196.896H387.237L400.305 175.441H405.399L389.964 200.858L391.096 197.668V211.456H386.002Z" fill="#7C7C7C"/>
<path d="M348.678 211.866C345.899 211.866 343.344 211.42 341.012 210.528C338.679 209.602 336.656 208.316 334.941 206.669C333.226 204.988 331.888 203.033 330.927 200.804C329.967 198.574 329.487 196.122 329.487 193.446C329.487 190.771 329.967 188.319 330.927 186.089C331.888 183.86 333.226 181.922 334.941 180.275C336.69 178.595 338.731 177.308 341.063 176.416C343.396 175.49 345.968 175.027 348.781 175.027C351.628 175.027 354.234 175.49 356.601 176.416C358.968 177.343 360.974 178.732 362.621 180.584L359.431 183.774C357.956 182.333 356.344 181.287 354.595 180.635C352.88 179.949 351.01 179.606 348.986 179.606C346.928 179.606 345.008 179.949 343.224 180.635C341.475 181.321 339.948 182.282 338.645 183.517C337.376 184.751 336.381 186.226 335.661 187.941C334.975 189.622 334.632 191.457 334.632 193.446C334.632 195.402 334.975 197.237 335.661 198.952C336.381 200.632 337.376 202.107 338.645 203.376C339.948 204.611 341.475 205.572 343.224 206.258C344.973 206.944 346.877 207.287 348.935 207.287C350.856 207.287 352.691 206.995 354.44 206.412C356.224 205.794 357.87 204.783 359.379 203.376L362.312 207.287C360.528 208.796 358.436 209.945 356.035 210.734C353.668 211.488 351.216 211.866 348.678 211.866ZM357.373 206.618V193.241H362.312V207.287L357.373 206.618Z" fill="#7C7C7C"/>
<path d="M297.539 190.979H316.061V195.353H297.539V190.979ZM298.002 206.98H318.993V211.456H292.857V175.441H318.273V179.918H298.002V206.98Z" fill="#7C7C7C"/>
<path d="M264.667 211.456V179.918H252.319V175.441H282.109V179.918H269.761V211.456H264.667Z" fill="#7C7C7C"/>
<path d="M211.042 211.456L227.352 175.441H232.446L248.807 211.456H243.404L228.844 178.323H230.902L216.342 211.456H211.042ZM217.988 202.453L219.377 198.337H239.649L241.141 202.453H217.988Z" fill="#7C7C7C"/>
<path d="M173.969 211.456V175.441H188.014C191.17 175.441 193.863 175.939 196.092 176.933C198.322 177.928 200.037 179.369 201.237 181.255C202.438 183.142 203.038 185.388 203.038 187.995C203.038 190.602 202.438 192.849 201.237 194.735C200.037 196.587 198.322 198.011 196.092 199.006C193.863 200 191.17 200.498 188.014 200.498H176.798L179.114 198.131V211.456H173.969ZM198.047 211.456L188.889 198.388H194.394L203.655 211.456H198.047ZM179.114 198.645L176.798 196.124H187.86C191.153 196.124 193.64 195.421 195.32 194.015C197.035 192.574 197.893 190.568 197.893 187.995C197.893 185.423 197.035 183.433 195.32 182.027C193.64 180.621 191.153 179.918 187.86 179.918H176.798L179.114 177.345V198.645Z" fill="#7C7C7C"/>
<path d="M145.779 211.456V179.918H133.431V175.441H163.22V179.918H150.872V211.456H145.779Z" fill="#7C7C7C"/>
<path d="M112.525 211.866C109.781 211.866 107.157 211.454 104.653 210.631C102.149 209.773 100.177 208.676 98.7364 207.338L100.64 203.325C102.012 204.525 103.761 205.52 105.888 206.309C108.015 207.098 110.227 207.492 112.525 207.492C114.617 207.492 116.315 207.252 117.619 206.772C118.922 206.292 119.882 205.64 120.5 204.817C121.117 203.959 121.426 202.999 121.426 201.936C121.426 200.701 121.014 199.706 120.191 198.952C119.402 198.197 118.356 197.597 117.053 197.151C115.783 196.671 114.377 196.259 112.834 195.916C111.29 195.573 109.73 195.179 108.152 194.733C106.608 194.253 105.185 193.652 103.881 192.932C102.612 192.212 101.583 191.251 100.794 190.051C100.005 188.816 99.611 187.238 99.611 185.317C99.611 183.465 100.091 181.767 101.052 180.224C102.046 178.646 103.556 177.394 105.579 176.468C107.637 175.508 110.244 175.027 113.4 175.027C115.492 175.027 117.567 175.302 119.625 175.851C121.683 176.399 123.467 177.188 124.976 178.217L123.278 182.333C121.735 181.304 120.105 180.567 118.39 180.121C116.675 179.641 115.012 179.401 113.4 179.401C111.376 179.401 109.712 179.658 108.409 180.172C107.106 180.687 106.145 181.373 105.528 182.230C104.945 183.088 104.653 184.048 104.653 185.112C104.653 186.381 105.048 187.393 105.836 188.147C106.660 188.902 107.706 189.502 108.975 189.948C110.278 190.394 111.702 190.805 113.245 191.183C114.789 191.526 116.332 191.92 117.876 192.366C119.454 192.812 120.877 193.395 122.146 194.115C123.450 194.836 124.496 195.796 125.285 196.997C126.074 198.197 126.468 199.741 126.468 201.627C126.468 203.445 125.971 205.143 124.976 206.721C123.981 208.264 122.438 209.516 120.345 210.476C118.287 211.403 115.681 211.866 112.525 211.866Z" fill="#7C7C7C"/>
<path d="M59.7489 82.1133L75.8865 125.725L119.498 141.862L75.8865 158L59.7489 201.611L43.6113 158L0 141.862L43.6113 125.725L59.7489 82.1133Z" fill="url(#paint0_linear_5468_325)"/>
<path d="M94.409 142.188H739.737" stroke="#FFA800" stroke-width="8.87048"/>
<defs>
<linearGradient id="paint0_linear_5468_325" x1="3.97268" y1="141.862" x2="112.541" y2="141.862" gradientUnits="userSpaceOnUse">
<stop stop-color="#FFC75B"/>
<stop offset="1" stop-color="#FFA800"/>
</linearGradient>
</defs>
</svg>
