<svg width="183" height="64" viewBox="0 0 183 64" fill="none" xmlns="http://www.w3.org/2000/svg">
<path d="M165.268 37.533C162.73 37.533 160.737 37.0127 159.29 35.9719C157.869 34.9311 157.158 33.4969 157.158 31.6693C157.158 30.527 157.45 29.5497 158.034 28.7374C158.618 27.9251 159.493 27.2651 160.661 26.7574C161.829 26.2243 163.276 25.8817 165.002 25.7294L172.922 24.8536C173.556 24.8028 174.026 24.6505 174.331 24.3967C174.635 24.1428 174.787 23.8002 174.787 23.3686V23.3305C174.787 22.7721 174.572 22.3025 174.14 21.9217C173.709 21.5409 173.099 21.249 172.312 21.046C171.551 20.8429 170.624 20.7413 169.533 20.7413C167.908 20.7413 166.626 20.9444 165.687 21.3506C164.748 21.7313 164.177 22.3025 163.974 23.064H158.11C158.338 21.744 158.922 20.6271 159.862 19.7133C160.826 18.7994 162.133 18.1014 163.783 17.6191C165.433 17.1368 167.388 16.8956 169.647 16.8956C172.109 16.8956 174.153 17.1622 175.777 17.6952C177.402 18.2283 178.62 19.0406 179.433 20.1321C180.245 21.1983 180.651 22.5436 180.651 24.1682V37H175.054V31.0981L175.663 31.8216C175.079 33.0654 174.305 34.1189 173.341 34.9819C172.376 35.8196 171.221 36.4542 169.876 36.8857C168.53 37.3173 166.994 37.533 165.268 37.533ZM167.324 33.535C168.365 33.535 169.33 33.3954 170.218 33.1162C171.132 32.8369 171.932 32.4562 172.617 31.9739C173.302 31.4662 173.836 30.8951 174.216 30.2604C174.597 29.6005 174.787 28.9024 174.787 28.1662V25.7674L175.739 27.1382C175.333 27.3666 174.826 27.5697 174.216 27.7474C173.607 27.8997 172.795 28.0393 171.779 28.1662L165.84 28.9278C164.951 29.0293 164.291 29.2578 163.86 29.6131C163.428 29.9431 163.212 30.4254 163.212 31.0601C163.212 31.847 163.555 32.4562 164.24 32.8877C164.951 33.3193 165.979 33.535 167.324 33.535Z" fill="#363636"/>
<path d="M130.07 37V17.4287H135.933V22.9879L135.4 22.1502C135.933 20.9825 136.657 20.0179 137.571 19.2564C138.484 18.4695 139.563 17.8856 140.807 17.5049C142.076 17.0987 143.46 16.8956 144.957 16.8956C146.481 16.8956 147.813 17.0987 148.955 17.5049C150.123 17.911 151.1 18.5202 151.887 19.3325C152.674 20.1194 153.271 21.0967 153.677 22.2644C154.108 23.4067 154.324 24.714 154.324 26.1863V37H148.422V27.3666C148.422 26.0974 148.207 25.0186 147.775 24.1301C147.344 23.2163 146.696 22.5182 145.833 22.0359C144.97 21.5283 143.879 21.2744 142.559 21.2744C141.188 21.2744 140.008 21.541 139.018 22.074C138.028 22.6071 137.266 23.3432 136.733 24.2825C136.2 25.2217 135.933 26.3005 135.933 27.5189V37H130.07Z" fill="#363636"/>
<path d="M120.254 37V17.4288H126.118V37H120.254ZM120.14 14.6873V9.81348H126.232V14.6873H120.14Z" fill="#363636"/>
<path d="M80.8752 37V17.4287H86.739V22.7213L86.1679 22.2263C86.6502 20.9063 87.3102 19.8656 88.1478 19.1041C88.9855 18.3171 89.9247 17.7587 90.9655 17.4287C92.0062 17.0733 93.0597 16.8956 94.1258 16.8956C95.3443 16.8956 96.4612 17.086 97.4766 17.4668C98.4919 17.8222 99.3423 18.406 100.028 19.2183C100.738 20.0306 101.221 21.0713 101.475 22.3406L100.599 22.2644C100.98 20.9698 101.589 19.929 102.426 19.1421C103.29 18.3552 104.267 17.7841 105.358 17.4287C106.475 17.0733 107.605 16.8956 108.747 16.8956C110.372 16.8956 111.768 17.251 112.936 17.9618C114.103 18.6471 115.004 19.6244 115.639 20.8937C116.274 22.1629 116.591 23.7113 116.591 25.539V37H110.727V26.3386C110.727 25.1455 110.549 24.1809 110.194 23.4448C109.864 22.7086 109.394 22.1629 108.785 21.8075C108.201 21.4521 107.491 21.2744 106.653 21.2744C105.714 21.2744 104.863 21.4902 104.102 21.9217C103.366 22.3532 102.769 22.9752 102.312 23.7875C101.881 24.5998 101.665 25.5897 101.665 26.7574V37H95.8012V26.3386C95.8012 24.5617 95.4331 23.2798 94.697 22.4929C93.9608 21.6806 92.9708 21.2744 91.727 21.2744C90.7878 21.2744 89.9374 21.4902 89.1759 21.9217C88.4398 22.3532 87.8432 22.9752 87.3863 23.7875C86.9548 24.5998 86.739 25.5897 86.739 26.7574V37H80.8752Z" fill="#363636"/>
<path d="M62.3415 37.5331C60.8692 37.5331 59.5619 37.33 58.4196 36.9238C57.3027 36.4923 56.3635 35.8831 55.6019 35.0962C54.8404 34.3092 54.2566 33.3446 53.8504 32.2024C53.4443 31.0347 53.2412 29.7147 53.2412 28.2424V17.4287H59.1431V27.062C59.1431 28.3059 59.3334 29.3847 59.7142 30.2985C60.1203 31.2124 60.7423 31.9231 61.5799 32.4308C62.4176 32.9131 63.4711 33.1543 64.7403 33.1543C66.0857 33.1543 67.2279 32.8877 68.1672 32.3547C69.1318 31.7962 69.8679 31.0601 70.3756 30.1462C70.8833 29.207 71.1371 28.1282 71.1371 26.9097V17.4287H77.0009V37H71.1371V31.4408L71.7083 32.3166C70.9467 34.0173 69.7537 35.3119 68.1291 36.2004C66.5299 37.0888 64.6007 37.5331 62.3415 37.5331Z" fill="#363636"/>
<path d="M26.0793 37V9.81348H32.2096V32.2786H50.829V37H26.0793Z" fill="#363636"/>
<path d="M178.334 60.5902C177.706 60.5902 177.105 60.496 176.532 60.3077C175.959 60.1115 175.508 59.8603 175.179 59.5543L175.614 58.636C175.928 58.9107 176.328 59.1383 176.815 59.3188C177.302 59.4993 177.808 59.5896 178.334 59.5896C178.812 59.5896 179.201 59.5346 179.499 59.4248C179.797 59.3149 180.017 59.1658 180.158 58.9774C180.299 58.7812 180.37 58.5615 180.37 58.3182C180.37 58.0357 180.276 57.8081 180.088 57.6354C179.907 57.4628 179.668 57.3254 179.369 57.2234C179.079 57.1135 178.757 57.0193 178.404 56.9409C178.051 56.8624 177.694 56.7721 177.333 56.6701C176.98 56.5602 176.654 56.4229 176.356 56.2581C176.065 56.0933 175.83 55.8735 175.649 55.5988C175.469 55.3163 175.379 54.9553 175.379 54.5158C175.379 54.092 175.489 53.7035 175.708 53.3504C175.936 52.9893 176.281 52.7029 176.744 52.491C177.215 52.2713 177.812 52.1614 178.534 52.1614C179.012 52.1614 179.487 52.2242 179.958 52.3497C180.429 52.4753 180.837 52.6558 181.182 52.8912L180.794 53.833C180.441 53.5976 180.068 53.4288 179.676 53.3268C179.283 53.2169 178.903 53.162 178.534 53.162C178.071 53.162 177.69 53.2209 177.392 53.3386C177.094 53.4563 176.874 53.6133 176.733 53.8095C176.599 54.0057 176.532 54.2254 176.532 54.4687C176.532 54.7591 176.623 54.9906 176.803 55.1633C176.992 55.3359 177.231 55.4733 177.521 55.5753C177.819 55.6773 178.145 55.7715 178.498 55.8578C178.852 55.9363 179.205 56.0266 179.558 56.1286C179.919 56.2306 180.245 56.364 180.535 56.5288C180.833 56.6936 181.073 56.9134 181.253 57.1881C181.434 57.4628 181.524 57.8159 181.524 58.2476C181.524 58.6635 181.41 59.052 181.182 59.413C180.955 59.7662 180.602 60.0526 180.123 60.2724C179.652 60.4843 179.056 60.5902 178.334 60.5902Z" fill="#7C7C7C"/>
<path d="M165.201 60.4961V52.2556H166.167L171.617 59.0246H171.111V52.2556H172.288V60.4961H171.323L165.872 53.7271H166.379V60.4961H165.201Z" fill="#7C7C7C"/>
<path d="M157.857 60.5902C157.23 60.5902 156.645 60.4843 156.103 60.2724C155.57 60.0605 155.107 59.7662 154.714 59.3895C154.322 59.0049 154.016 58.5576 153.796 58.0474C153.576 57.5373 153.466 56.9801 153.466 56.3758C153.466 55.7715 153.576 55.2143 153.796 54.7042C154.016 54.194 154.322 53.7506 154.714 53.3739C155.107 52.9893 155.57 52.6911 156.103 52.4792C156.637 52.2673 157.222 52.1614 157.857 52.1614C158.485 52.1614 159.062 52.2673 159.588 52.4792C160.122 52.6833 160.585 52.9776 160.977 53.3621C161.377 53.7388 161.683 54.1823 161.895 54.6924C162.115 55.2025 162.225 55.7636 162.225 56.3758C162.225 56.9879 162.115 57.5491 161.895 58.0592C161.683 58.5693 161.377 59.0167 160.977 59.4012C160.585 59.7779 160.122 60.0722 159.588 60.2841C159.062 60.4882 158.485 60.5902 157.857 60.5902ZM157.857 59.5425C158.313 59.5425 158.732 59.464 159.117 59.3071C159.509 59.1501 159.847 58.9303 160.129 58.6478C160.42 58.3574 160.643 58.02 160.8 57.6354C160.965 57.2509 161.048 56.831 161.048 56.3758C161.048 55.9206 160.965 55.5007 160.8 55.1162C160.643 54.7316 160.42 54.3981 160.129 54.1155C159.847 53.8252 159.509 53.6015 159.117 53.4445C158.732 53.2876 158.313 53.2091 157.857 53.2091C157.394 53.2091 156.967 53.2876 156.574 53.4445C156.19 53.6015 155.852 53.8252 155.562 54.1155C155.271 54.3981 155.044 54.7316 154.879 55.1162C154.722 55.5007 154.644 55.9206 154.644 56.3758C154.644 56.831 154.722 57.2509 154.879 57.6354C155.044 58.02 155.271 58.3574 155.562 58.6478C155.852 58.9303 156.19 59.1501 156.574 59.3071C156.967 59.464 157.394 59.5425 157.857 59.5425Z" fill="#7C7C7C"/>
<path d="M149.316 60.4961V52.2556H150.493V60.4961H149.316Z" fill="#7C7C7C"/>
<path d="M142.866 60.4961V53.2798H140.041V52.2556H146.857V53.2798H144.031V60.4961H142.866Z" fill="#7C7C7C"/>
<path d="M134.304 60.5903C133.221 60.5903 132.369 60.2803 131.749 59.6603C131.129 59.0403 130.819 58.1338 130.819 56.9409V52.2556H131.997V56.8938C131.997 57.8121 132.197 58.4831 132.597 58.9069C133.005 59.3307 133.578 59.5426 134.316 59.5426C135.061 59.5426 135.634 59.3307 136.034 58.9069C136.442 58.4831 136.647 57.8121 136.647 56.8938V52.2556H137.788V56.9409C137.788 58.1338 137.478 59.0403 136.858 59.6603C136.246 60.2803 135.395 60.5903 134.304 60.5903Z" fill="#7C7C7C"/>
<path d="M122.861 60.4961V52.2556H124.038V59.4719H128.5V60.4961H122.861Z" fill="#7C7C7C"/>
<path d="M115.517 60.5902C114.889 60.5902 114.304 60.4843 113.763 60.2724C113.229 60.0605 112.766 59.7662 112.374 59.3895C111.981 59.0049 111.675 58.5576 111.456 58.0474C111.236 57.5373 111.126 56.9801 111.126 56.3758C111.126 55.7715 111.236 55.2143 111.456 54.7042C111.675 54.194 111.981 53.7506 112.374 53.3739C112.766 52.9893 113.229 52.6911 113.763 52.4792C114.297 52.2673 114.881 52.1614 115.517 52.1614C116.145 52.1614 116.722 52.2673 117.247 52.4792C117.781 52.6833 118.244 52.9776 118.637 53.3621C119.037 53.7388 119.343 54.1823 119.555 54.6924C119.775 55.2025 119.884 55.7636 119.884 56.3758C119.884 56.9879 119.775 57.5491 119.555 58.0592C119.343 58.5693 119.037 59.0167 118.637 59.4012C118.244 59.7779 117.781 60.0722 117.247 60.2841C116.722 60.4882 116.145 60.5902 115.517 60.5902ZM115.517 59.5425C115.972 59.5425 116.392 59.464 116.777 59.3071C117.169 59.1501 117.506 58.9303 117.789 58.6478C118.079 58.3574 118.303 58.02 118.46 57.6354C118.625 57.2509 118.707 56.831 118.707 56.3758C118.707 55.9206 118.625 55.5007 118.46 55.1162C118.303 54.7316 118.079 54.3981 117.789 54.1155C117.506 53.8252 117.169 53.6015 116.777 53.4445C116.392 53.2876 115.972 53.2091 115.517 53.2091C115.054 53.2091 114.626 53.2876 114.234 53.4445C113.849 53.6015 113.512 53.8252 113.221 54.1155C112.931 54.3981 112.703 54.7316 112.539 55.1162C112.382 55.5007 112.303 55.9206 112.303 56.3758C112.303 56.831 112.382 57.2509 112.539 57.6354C112.703 58.02 112.931 58.3574 113.221 58.6478C113.512 58.9303 113.849 59.1501 114.234 59.3071C114.626 59.464 115.054 59.5425 115.517 59.5425Z" fill="#7C7C7C"/>
<path d="M105.71 60.5902C105.082 60.5902 104.481 60.496 103.908 60.3077C103.336 60.1115 102.884 59.8603 102.555 59.5543L102.99 58.636C103.304 58.9107 103.704 59.1383 104.191 59.3188C104.678 59.4993 105.184 59.5896 105.71 59.5896C106.188 59.5896 106.577 59.5346 106.875 59.4248C107.173 59.3149 107.393 59.1658 107.534 58.9774C107.676 58.7812 107.746 58.5615 107.746 58.3182C107.746 58.0357 107.652 57.8081 107.464 57.6354C107.283 57.4628 107.044 57.3254 106.746 57.2234C106.455 57.1135 106.133 57.0193 105.78 56.9409C105.427 56.8624 105.07 56.7721 104.709 56.6701C104.356 56.5602 104.03 56.4229 103.732 56.2581C103.442 56.0933 103.206 55.8735 103.026 55.5988C102.845 55.3163 102.755 54.9553 102.755 54.5158C102.755 54.092 102.865 53.7035 103.084 53.3504C103.312 52.9893 103.657 52.7029 104.12 52.491C104.591 52.2713 105.188 52.1614 105.91 52.1614C106.388 52.1614 106.863 52.2242 107.334 52.3497C107.805 52.4753 108.213 52.6558 108.558 52.8912L108.17 53.833C107.817 53.5976 107.444 53.4288 107.052 53.3268C106.659 53.2169 106.279 53.162 105.91 53.162C105.447 53.162 105.066 53.2209 104.768 53.3386C104.47 53.4563 104.25 53.6133 104.109 53.8095C103.975 54.0057 103.908 54.2254 103.908 54.4687C103.908 54.7591 103.999 54.9906 104.179 55.1633C104.368 55.3359 104.607 55.4733 104.897 55.5753C105.196 55.6773 105.521 55.7715 105.874 55.8578C106.228 55.9363 106.581 56.0266 106.934 56.1286C107.295 56.2306 107.621 56.364 107.911 56.5288C108.209 56.6936 108.449 56.9134 108.629 57.1881C108.81 57.4628 108.9 57.8159 108.9 58.2476C108.9 58.6635 108.786 59.052 108.558 59.413C108.331 59.7662 107.978 60.0526 107.499 60.2724C107.028 60.4843 106.432 60.5902 105.71 60.5902Z" fill="#7C7C7C"/>
<path d="M92.1599 60.4961V57.3412L92.4306 58.071L88.8872 52.2556H90.1468L93.1252 57.1646H92.4424L95.4325 52.2556H96.5979L93.0663 58.071L93.3253 57.3412V60.4961H92.1599Z" fill="#7C7C7C"/>
<path d="M83.6195 60.5902C82.9838 60.5902 82.3991 60.4882 81.8655 60.2841C81.3318 60.0722 80.8688 59.7779 80.4764 59.4012C80.084 59.0167 79.7779 58.5693 79.5581 58.0592C79.3384 57.5491 79.2285 56.9879 79.2285 56.3758C79.2285 55.7636 79.3384 55.2025 79.5581 54.6924C79.7779 54.1823 80.084 53.7388 80.4764 53.3621C80.8766 52.9776 81.3436 52.6833 81.8772 52.4792C82.4109 52.2673 82.9995 52.1614 83.6431 52.1614C84.2944 52.1614 84.8909 52.2673 85.4324 52.4792C85.9739 52.6911 86.4331 53.009 86.8098 53.4328L86.0799 54.1626C85.7424 53.833 85.3736 53.5937 84.9733 53.4445C84.5809 53.2876 84.1532 53.2091 83.6901 53.2091C83.2193 53.2091 82.7798 53.2876 82.3717 53.4445C81.9714 53.6015 81.6222 53.8212 81.324 54.1038C81.0336 54.3863 80.806 54.7238 80.6412 55.1162C80.4842 55.5007 80.4057 55.9206 80.4057 56.3758C80.4057 56.8231 80.4842 57.243 80.6412 57.6354C80.806 58.02 81.0336 58.3574 81.324 58.6478C81.6222 58.9303 81.9714 59.1501 82.3717 59.3071C82.7719 59.464 83.2075 59.5425 83.6784 59.5425C84.1179 59.5425 84.5377 59.4758 84.938 59.3424C85.3461 59.2011 85.7228 58.9696 86.0681 58.6478L86.7391 59.5425C86.331 59.8878 85.8523 60.1507 85.3029 60.3312C84.7614 60.5039 84.2003 60.5902 83.6195 60.5902ZM86.7391 59.5425L85.609 59.3895V56.3287H86.7391V59.5425Z" fill="#7C7C7C"/>
<path d="M70.8474 60.4961V52.2556H76.6628V53.2798H72.0246V59.4719H76.8277V60.4961H70.8474ZM71.9187 56.8114V55.8108H76.1566V56.8114H71.9187Z" fill="#7C7C7C"/>
<path d="M64.3973 60.4961V53.2798H61.572V52.2556H68.3881V53.2798H65.5628V60.4961H64.3973Z" fill="#7C7C7C"/>
<path d="M52.1277 60.4961L55.8594 52.2556H57.0249L60.7684 60.4961H59.5324L56.2008 52.9149H56.6717L53.3402 60.4961H52.1277ZM53.7169 58.436L54.0348 57.4942H58.673L59.0144 58.436H53.7169Z" fill="#7C7C7C"/>
<path d="M43.645 60.4961V52.2556H46.8588C47.9261 52.2556 48.7659 52.5107 49.378 53.0208C49.9902 53.5231 50.2963 54.2255 50.2963 55.128C50.2963 55.7245 50.1589 56.2385 49.8842 56.6702C49.6096 57.094 49.2172 57.4197 48.707 57.6472C48.1969 57.8748 47.5808 57.9886 46.8588 57.9886H44.2925L44.8222 57.4471V60.4961H43.645ZM49.1544 60.4961L47.0589 57.506H48.3186L50.4375 60.4961H49.1544ZM44.8222 57.5648L44.2925 56.988H46.8235C47.5769 56.988 48.1459 56.8271 48.5305 56.5054C48.9229 56.1757 49.1191 55.7166 49.1191 55.128C49.1191 54.5394 48.9229 54.0842 48.5305 53.7624C48.1459 53.4407 47.5769 53.2798 46.8235 53.2798H44.2925L44.8222 52.6912V57.5648Z" fill="#7C7C7C"/>
<path d="M37.1949 60.4961V53.2798H34.3696V52.2556H41.1857V53.2798H38.3604V60.4961H37.1949Z" fill="#7C7C7C"/>
<path d="M29.5863 60.5902C28.9585 60.5902 28.3581 60.496 27.7852 60.3077C27.2123 60.1115 26.761 59.8603 26.4314 59.5543L26.867 58.636C27.1809 58.9107 27.5811 59.1383 28.0677 59.3188C28.5543 59.4993 29.0605 59.5896 29.5863 59.5896C30.0651 59.5896 30.4535 59.5346 30.7518 59.4248C31.05 59.3149 31.2697 59.1658 31.411 58.9774C31.5523 58.7812 31.6229 58.5615 31.6229 58.3182C31.6229 58.0357 31.5287 57.8081 31.3404 57.6354C31.1599 57.4628 30.9205 57.3254 30.6223 57.2234C30.3319 57.1135 30.0101 57.0193 29.657 56.9409C29.3038 56.8624 28.9467 56.7721 28.5857 56.6701C28.2325 56.5602 27.9068 56.4229 27.6086 56.2581C27.3182 56.0933 27.0828 55.8735 26.9023 55.5988C26.7218 55.3163 26.6315 54.9553 26.6315 54.5158C26.6315 54.092 26.7414 53.7035 26.9611 53.3504C27.1887 52.9893 27.5341 52.7029 27.9971 52.491C28.468 52.2713 29.0644 52.1614 29.7865 52.1614C30.2652 52.1614 30.74 52.2242 31.2109 52.3497C31.6818 52.4753 32.0899 52.6558 32.4352 52.8912L32.0467 53.833C31.6935 53.5976 31.3208 53.4288 30.9283 53.3268C30.5359 53.2169 30.1553 53.162 29.7865 53.162C29.3234 53.162 28.9428 53.2209 28.6446 53.3386C28.3463 53.4563 28.1266 53.6133 27.9853 53.8095C27.8519 54.0057 27.7852 54.2254 27.7852 54.4687C27.7852 54.7591 27.8754 54.9906 28.0559 55.1633C28.2443 55.3359 28.4837 55.4733 28.774 55.5753C29.0723 55.6773 29.398 55.7715 29.7511 55.8578C30.1043 55.9363 30.4575 56.0266 30.8106 56.1286C31.1716 56.2306 31.4973 56.364 31.7877 56.5288C32.0859 56.6936 32.3253 56.9134 32.5058 57.1881C32.6863 57.4628 32.7766 57.8159 32.7766 58.2476C32.7766 58.6635 32.6628 59.052 32.4352 59.413C32.2076 59.7662 31.8544 60.0526 31.3757 60.2724C30.9048 60.4843 30.3083 60.5902 29.5863 60.5902Z" fill="#7C7C7C"/>
<path d="M16.0452 27.0398L20.3789 38.7513L32.0904 43.085L20.3789 47.4187L16.0452 59.1302L11.7115 47.4187L0 43.085L11.7115 38.7513L16.0452 27.0398Z" fill="url(#paint0_linear_107_7)"/>
<path d="M25.6807 42.7971H182.974" stroke="#FFA800" stroke-width="2.38211"/>
<defs>
<linearGradient id="paint0_linear_107_7" x1="1.06684" y1="43.085" x2="30.2221" y2="43.085" gradientUnits="userSpaceOnUse">
<stop stop-color="#FFC75B"/>
<stop offset="1" stop-color="#FFA800"/>
</linearGradient>
</defs>
</svg>
