<svg width="395" height="104" viewBox="0 0 395 104" fill="none" xmlns="http://www.w3.org/2000/svg">
<path d="M363.219 54.5912C358.22 54.5912 354.296 53.5664 351.446 51.5167C348.647 49.467 347.247 46.6425 347.247 43.0431C347.247 40.7934 347.822 38.8687 348.972 37.269C350.121 35.6693 351.846 34.3695 354.146 33.3696C356.445 32.3198 359.295 31.6449 362.694 31.345L378.292 29.6202C379.542 29.5202 380.466 29.2203 381.066 28.7204C381.666 28.2205 381.966 27.5456 381.966 26.6957V26.6207C381.966 25.5209 381.541 24.596 380.691 23.8462C379.842 23.0963 378.642 22.5214 377.092 22.1214C375.592 21.7215 373.768 21.5215 371.618 21.5215C368.418 21.5215 365.894 21.9215 364.044 22.7213C362.194 23.4712 361.07 24.596 360.67 26.0958H349.122C349.571 23.4962 350.721 21.2966 352.571 19.4969C354.471 17.6971 357.045 16.3224 360.295 15.3725C363.544 14.4227 367.394 13.9478 371.843 13.9478C376.692 13.9478 380.716 14.4727 383.916 15.5225C387.115 16.5723 389.515 18.1721 391.115 20.3217C392.715 22.4214 393.514 25.071 393.514 28.2704V53.5414H382.491V41.9182L383.691 43.343C382.541 45.7926 381.016 47.8673 379.117 49.567C377.217 51.2167 374.942 52.4665 372.293 53.3164C369.643 54.1663 366.619 54.5912 363.219 54.5912ZM367.269 46.7175C369.318 46.7175 371.218 46.4425 372.968 45.8926C374.767 45.3427 376.342 44.5928 377.692 43.643C379.042 42.6431 380.092 41.5183 380.841 40.2685C381.591 38.9687 381.966 37.5939 381.966 36.1442V31.4199L383.841 34.1195C383.041 34.5694 382.041 34.9694 380.841 35.3193C379.642 35.6193 378.042 35.8942 376.042 36.1442L364.344 37.6439C362.594 37.8439 361.295 38.2938 360.445 38.9937C359.595 39.6436 359.17 40.5935 359.17 41.8433C359.17 43.393 359.845 44.5928 361.195 45.4427C362.594 46.2925 364.619 46.7175 367.269 46.7175Z" fill="white"/>
<path d="M293.899 53.5414V14.9976H305.447V25.9458L304.397 24.2961C305.447 21.9965 306.872 20.0968 308.671 18.597C310.471 17.0473 312.596 15.8974 315.045 15.1476C317.545 14.3477 320.27 13.9478 323.219 13.9478C326.219 13.9478 328.843 14.3477 331.093 15.1476C333.392 15.9474 335.317 17.1472 336.867 18.747C338.417 20.2967 339.591 22.2214 340.391 24.521C341.241 26.7707 341.666 29.3453 341.666 32.2448V53.5414H330.043V34.5694C330.043 32.0698 329.618 29.9452 328.768 28.1955C327.918 26.3957 326.644 25.021 324.944 24.0711C323.244 23.0713 321.094 22.5714 318.495 22.5714C315.795 22.5714 313.471 23.0963 311.521 24.1461C309.571 25.1959 308.072 26.6457 307.022 28.4954C305.972 30.3451 305.447 32.4698 305.447 34.8694V53.5414H293.899Z" fill="white"/>
<path d="M263.405 54.5912C258.155 54.5912 253.631 53.7413 249.832 52.0416C246.082 50.3419 243.183 47.9673 241.133 44.9178C239.134 41.8183 238.134 38.2688 238.134 34.2695C238.134 31.8199 238.484 29.5702 239.183 27.5206C239.933 25.4209 241.008 23.5462 242.408 21.8965C243.858 20.1967 245.607 18.772 247.657 17.6222C249.707 16.4224 252.056 15.5225 254.706 14.9226C257.356 14.2727 260.255 13.9478 263.405 13.9478C267.204 13.9478 270.628 14.3977 273.678 15.2975C276.727 16.1974 279.302 17.5972 281.402 19.4969C283.551 21.3466 285.176 23.7212 286.276 26.6207C287.376 29.4702 287.901 32.8697 287.851 36.8191H245.482V30.4451H276.078C275.828 29.0453 275.353 27.8205 274.653 26.7707C273.953 25.6709 273.053 24.746 271.953 23.9961C270.853 23.2463 269.579 22.6963 268.129 22.3464C266.679 21.9965 265.079 21.8215 263.33 21.8215C261.53 21.8215 259.88 22.0215 258.38 22.4214C256.931 22.8213 255.631 23.3962 254.481 24.1461C253.381 24.846 252.456 25.7209 251.706 26.7707C251.007 27.7705 250.457 28.8953 250.057 30.1451C249.707 31.3949 249.532 32.7697 249.532 34.2695C249.532 36.6691 250.032 38.8187 251.032 40.7184C252.081 42.5681 253.656 44.0429 255.756 45.1427C257.855 46.1926 260.455 46.7175 263.555 46.7175C266.404 46.7175 268.804 46.3675 270.753 45.6676C272.703 44.9178 274.178 43.8179 275.178 42.3682H287.176C286.526 44.6178 285.276 46.6675 283.426 48.5172C281.577 50.3669 279.002 51.8416 275.703 52.9415C272.453 54.0413 268.354 54.5912 263.405 54.5912Z" fill="white"/>
<path d="M162.231 53.5414V14.9976H173.779V25.4209L172.654 24.4461C173.604 21.8465 174.904 19.7968 176.554 18.297C178.203 16.7473 180.053 15.6475 182.103 14.9976C184.152 14.2977 186.227 13.9478 188.327 13.9478C190.726 13.9478 192.926 14.3227 194.926 15.0726C196.925 15.7725 198.6 16.9223 199.95 18.522C201.35 20.1218 202.299 22.1714 202.799 24.671L201.075 24.521C201.824 21.9715 203.024 19.9218 204.674 18.372C206.374 16.8223 208.298 15.6975 210.448 14.9976C212.648 14.2977 214.872 13.9478 217.122 13.9478C220.321 13.9478 223.071 14.6476 225.371 16.0474C227.67 17.3972 229.445 19.3219 230.695 21.8215C231.945 24.3211 232.569 27.3706 232.569 30.97V53.5414H221.021V32.5448C221.021 30.1951 220.671 28.2954 219.972 26.8457C219.322 25.3959 218.397 24.3211 217.197 23.6212C216.047 22.9213 214.647 22.5714 212.998 22.5714C211.148 22.5714 209.473 22.9963 207.973 23.8462C206.524 24.696 205.349 25.9208 204.449 27.5206C203.599 29.1203 203.174 31.07 203.174 33.3696V53.5414H191.626V32.5448C191.626 29.0453 190.901 26.5207 189.451 24.971C188.002 23.3712 186.052 22.5714 183.602 22.5714C181.753 22.5714 180.078 22.9963 178.578 23.8462C177.128 24.696 175.954 25.9208 175.054 27.5206C174.204 29.1203 173.779 31.07 173.779 33.3696V53.5414H162.231Z" fill="white"/>
<path d="M125.73 54.5912C122.831 54.5912 120.256 54.1912 118.007 53.3914C115.807 52.5415 113.957 51.3417 112.457 49.792C110.958 48.2422 109.808 46.3425 109.008 44.0929C108.208 41.7932 107.808 39.1937 107.808 36.2941V14.9976H119.431V33.9695C119.431 36.4191 119.806 38.5438 120.556 40.3435C121.356 42.1432 122.581 43.543 124.231 44.5428C125.88 45.4926 127.955 45.9676 130.455 45.9676C133.104 45.9676 135.354 45.4426 137.203 44.3928C139.103 43.293 140.553 41.8432 141.553 40.0435C142.553 38.1938 143.053 36.0692 143.053 33.6695V14.9976H154.601V53.5413H143.053V42.5931L144.177 44.3178C142.678 47.6673 140.328 50.2169 137.129 51.9666C133.979 53.7163 130.18 54.5912 125.73 54.5912Z" fill="white"/>
<path d="M54.3156 53.5414V0H66.3886V44.2429H103.058V53.5414H54.3156Z" fill="white"/>
<path d="M375.878 103.109V84.0646H378.109L390.706 99.7081H389.536V84.0646H392.257V103.109H390.026L377.429 87.4653H378.599V103.109H375.878Z" fill="#7C7C7C"/>
<path d="M358.906 103.326C357.455 103.326 356.104 103.082 354.852 102.592C353.619 102.102 352.549 101.422 351.642 100.551C350.735 99.6627 350.028 98.6289 349.52 97.45C349.012 96.271 348.758 94.9833 348.758 93.5867C348.758 92.1901 349.012 90.9024 349.52 89.7234C350.028 88.5445 350.735 87.5197 351.642 86.6492C352.549 85.7604 353.619 85.0712 354.852 84.5815C356.086 84.0918 357.437 83.8469 358.906 83.8469C360.357 83.8469 361.69 84.0918 362.905 84.5815C364.139 85.0531 365.209 85.7332 366.116 86.6219C367.041 87.4925 367.748 88.5173 368.238 89.6962C368.746 90.8752 369 92.172 369 93.5867C369 95.0014 368.746 96.2982 368.238 97.4772C367.748 98.6561 367.041 99.6899 366.116 100.579C365.209 101.449 364.139 102.129 362.905 102.619C361.69 103.091 360.357 103.326 358.906 103.326ZM358.906 100.905C359.958 100.905 360.928 100.724 361.817 100.361C362.724 99.9983 363.504 99.4904 364.157 98.8375C364.828 98.1664 365.345 97.3865 365.708 96.4978C366.088 95.609 366.279 94.6387 366.279 93.5867C366.279 92.5347 366.088 91.5644 365.708 90.6757C365.345 89.7869 364.828 89.0161 364.157 88.3631C363.504 87.6921 362.724 87.1751 361.817 86.8124C360.928 86.4496 359.958 86.2683 358.906 86.2683C357.836 86.2683 356.847 86.4496 355.941 86.8124C355.052 87.1751 354.272 87.6921 353.601 88.3631C352.93 89.0161 352.404 89.7869 352.023 90.6757C351.66 91.5644 351.479 92.5347 351.479 93.5867C351.479 94.6387 351.66 95.609 352.023 96.4978C352.404 97.3865 352.93 98.1664 353.601 98.8375C354.272 99.4904 355.052 99.9983 355.941 100.361C356.847 100.724 357.836 100.905 358.906 100.905Z" fill="#7C7C7C"/>
<path d="M339.166 103.109V84.0646H341.887V103.109H339.166Z" fill="#7C7C7C"/>
<path d="M324.26 103.109V86.4315H317.73V84.0646H333.482V86.4315H326.953V103.109H324.26Z" fill="#7C7C7C"/>
<path d="M304.472 103.326C301.969 103.326 300.001 102.61 298.568 101.177C297.136 99.7444 296.419 97.6495 296.419 94.8926V84.0646H299.14V94.7838C299.14 96.9059 299.602 98.4566 300.527 99.436C301.47 100.415 302.794 100.905 304.499 100.905C306.222 100.905 307.546 100.415 308.471 99.436C309.415 98.4566 309.886 96.9059 309.886 94.7838V84.0646H312.525V94.8926C312.525 97.6495 311.809 99.7444 310.376 101.177C308.961 102.61 306.993 103.326 304.472 103.326Z" fill="#7C7C7C"/>
<path d="M278.027 103.109V84.0646H280.747V100.742H291.059V103.109H278.027Z" fill="#7C7C7C"/>
<path d="M261.054 103.326C259.603 103.326 258.252 103.082 257.001 102.592C255.767 102.102 254.697 101.422 253.79 100.551C252.883 99.6627 252.176 98.6289 251.668 97.45C251.16 96.271 250.906 94.9833 250.906 93.5867C250.906 92.1901 251.16 90.9024 251.668 89.7234C252.176 88.5445 252.883 87.5197 253.79 86.6492C254.697 85.7604 255.767 85.0712 257.001 84.5815C258.234 84.0918 259.585 83.8469 261.054 83.8469C262.505 83.8469 263.838 84.0918 265.054 84.5815C266.287 85.0531 267.357 85.7332 268.264 86.6219C269.189 87.4925 269.896 88.5173 270.386 89.6962C270.894 90.8752 271.148 92.172 271.148 93.5867C271.148 95.0014 270.894 96.2982 270.386 97.4772C269.896 98.6561 269.189 99.6899 268.264 100.579C267.357 101.449 266.287 102.129 265.054 102.619C263.838 103.091 262.505 103.326 261.054 103.326ZM261.054 100.905C262.106 100.905 263.077 100.724 263.965 100.361C264.872 99.9983 265.652 99.4904 266.305 98.8375C266.976 98.1664 267.493 97.3865 267.856 96.4978C268.237 95.609 268.427 94.6387 268.427 93.5867C268.427 92.5347 268.237 91.5644 267.856 90.6757C267.493 89.7869 266.976 89.0161 266.305 88.3631C265.652 87.6921 264.872 87.1751 263.965 86.8124C263.077 86.4496 262.106 86.2683 261.054 86.2683C259.984 86.2683 258.996 86.4496 258.089 86.8124C257.2 87.1751 256.42 87.6921 255.749 88.3631C255.078 89.0161 254.552 89.7869 254.171 90.6757C253.808 91.5644 253.627 92.5347 253.627 93.5867C253.627 94.6387 253.808 95.609 254.171 96.4978C254.552 97.3865 255.078 98.1664 255.749 98.8375C256.42 99.4904 257.2 99.9983 258.089 100.361C258.996 100.724 259.984 100.905 261.054 100.905Z" fill="#7C7C7C"/>
<path d="M238.389 103.326C236.938 103.326 235.551 103.109 234.227 102.674C232.903 102.22 231.86 101.64 231.098 100.932L232.105 98.8103C232.83 99.4451 233.755 99.9711 234.88 100.388C236.004 100.805 237.174 101.014 238.389 101.014C239.496 101.014 240.394 100.887 241.083 100.633C241.772 100.379 242.28 100.035 242.606 99.5993C242.933 99.1458 243.096 98.638 243.096 98.0757C243.096 97.4228 242.878 96.8968 242.443 96.4978C242.026 96.0987 241.473 95.7813 240.784 95.5455C240.112 95.2916 239.369 95.074 238.553 94.8926C237.736 94.7112 236.911 94.5026 236.077 94.2669C235.261 94.0129 234.508 93.6955 233.819 93.3146C233.148 92.9338 232.604 92.4259 232.186 91.7911C231.769 91.1382 231.561 90.3038 231.561 89.2881C231.561 88.3087 231.815 87.4109 232.322 86.5947C232.848 85.7604 233.646 85.0984 234.717 84.6087C235.805 84.1008 237.183 83.8469 238.852 83.8469C239.958 83.8469 241.056 83.992 242.144 84.2822C243.232 84.5724 244.175 84.9896 244.973 85.5337L244.075 87.7102C243.259 87.1661 242.398 86.7761 241.491 86.5403C240.584 86.2864 239.704 86.1594 238.852 86.1594C237.782 86.1594 236.902 86.2955 236.213 86.5675C235.524 86.8396 235.016 87.2023 234.689 87.6558C234.381 88.1092 234.227 88.6171 234.227 89.1793C234.227 89.8504 234.435 90.3855 234.853 90.7845C235.288 91.1835 235.841 91.5009 236.512 91.7367C237.201 91.9725 237.954 92.1901 238.77 92.3896C239.586 92.571 240.403 92.7796 241.219 93.0154C242.053 93.2512 242.806 93.5595 243.477 93.9404C244.166 94.3213 244.719 94.8291 245.136 95.4639C245.554 96.0987 245.762 96.9149 245.762 97.9125C245.762 98.8738 245.499 99.7716 244.973 100.606C244.447 101.422 243.631 102.084 242.525 102.592C241.436 103.082 240.058 103.326 238.389 103.326Z" fill="#7C7C7C"/>
<path d="M207.075 103.109V95.8176L207.7 97.5044L199.511 84.0646H202.422L209.306 95.4095H207.728L214.638 84.0646H217.331L209.17 97.5044L209.768 95.8176V103.109H207.075Z" fill="#7C7C7C"/>
<path d="M187.338 103.326C185.869 103.326 184.517 103.091 183.284 102.619C182.051 102.129 180.981 101.449 180.074 100.579C179.167 99.6899 178.459 98.6561 177.952 97.4772C177.444 96.2982 177.19 95.0014 177.19 93.5867C177.19 92.172 177.444 90.8752 177.952 89.6962C178.459 88.5173 179.167 87.4925 180.074 86.6219C180.999 85.7332 182.078 85.0531 183.311 84.5815C184.545 84.0918 185.905 83.8469 187.392 83.8469C188.898 83.8469 190.276 84.0918 191.527 84.5815C192.779 85.0712 193.84 85.8058 194.711 86.7852L193.024 88.472C192.244 87.7102 191.391 87.157 190.466 86.8124C189.56 86.4496 188.571 86.2683 187.501 86.2683C186.413 86.2683 185.397 86.4496 184.454 86.8124C183.529 87.1751 182.722 87.683 182.033 88.3359C181.361 88.9889 180.835 89.7688 180.455 90.6757C180.092 91.5644 179.91 92.5347 179.91 93.5867C179.91 94.6205 180.092 95.5909 180.455 96.4978C180.835 97.3865 181.361 98.1664 182.033 98.8375C182.722 99.4904 183.529 99.9983 184.454 100.361C185.379 100.724 186.385 100.905 187.474 100.905C188.489 100.905 189.46 100.751 190.385 100.443C191.328 100.116 192.199 99.5811 192.997 98.8375L194.547 100.905C193.604 101.703 192.498 102.311 191.228 102.728C189.977 103.127 188.68 103.326 187.338 103.326ZM191.936 100.551V93.4779H194.547V100.905L191.936 100.551Z" fill="#7C7C7C"/>
<path d="M160.296 92.2808H170.091V94.5933H160.296V92.2808ZM160.541 100.742H171.641V103.109H157.821V84.0646H171.26V86.4315H160.541V100.742Z" fill="#7C7C7C"/>
<path d="M142.914 103.109V86.4315H136.385V84.0646H152.137V86.4315H145.607V103.109H142.914Z" fill="#7C7C7C"/>
<path d="M114.558 103.109L123.182 84.0646H125.876L134.527 103.109H131.67L123.971 85.5881H125.059L117.36 103.109H114.558ZM118.231 98.3478L118.965 96.1713H129.684L130.473 98.3478H118.231Z" fill="#7C7C7C"/>
<path d="M94.9543 103.109V84.0646H102.382C104.05 84.0646 105.474 84.3276 106.653 84.8536C107.832 85.3795 108.739 86.1413 109.374 87.1389C110.008 88.1364 110.326 89.3244 110.326 90.7029C110.326 92.0813 110.008 93.2693 109.374 94.2669C108.739 95.2463 107.832 95.999 106.653 96.525C105.474 97.051 104.05 97.3139 102.382 97.3139H96.4507L97.675 96.0625V103.109H94.9543ZM107.687 103.109L102.844 96.1985H105.755L110.652 103.109H107.687ZM97.675 96.3345L96.4507 95.0014H102.3C104.041 95.0014 105.356 94.6296 106.245 93.886C107.152 93.1242 107.605 92.0632 107.605 90.7029C107.605 89.3426 107.152 88.2906 106.245 87.547C105.356 86.8033 104.041 86.4315 102.3 86.4315H96.4507L97.675 85.0712V96.3345Z" fill="#7C7C7C"/>
<path d="M80.0475 103.109V86.4315H73.5181V84.0646H89.2704V86.4315H82.7409V103.109H80.0475Z" fill="#7C7C7C"/>
<path d="M62.4636 103.326C61.0126 103.326 59.6251 103.109 58.3011 102.674C56.977 102.22 55.9341 101.64 55.1724 100.932L56.179 98.8103C56.9045 99.4451 57.8295 99.9711 58.954 100.388C60.0785 100.805 61.2484 101.014 62.4636 101.014C63.57 101.014 64.4678 100.887 65.157 100.633C65.8462 100.379 66.3541 100.035 66.6805 99.5993C67.007 99.1458 67.1703 98.638 67.1703 98.0757C67.1703 97.4228 66.9526 96.8968 66.5173 96.4978C66.1001 96.0987 65.547 95.7813 64.8577 95.5455C64.1866 95.2916 63.443 95.074 62.6268 94.8926C61.8107 94.7112 60.9854 94.5026 60.1511 94.2669C59.3349 94.0129 58.5822 93.6955 57.893 93.3146C57.2219 92.9338 56.6778 92.4259 56.2606 91.7911C55.8434 91.1382 55.6349 90.3038 55.6349 89.2881C55.6349 88.3087 55.8888 87.4109 56.3966 86.5947C56.9226 85.7604 57.7207 85.0984 58.7908 84.6087C59.879 84.1008 61.2575 83.8469 62.9261 83.8469C64.0325 83.8469 65.1298 83.992 66.218 84.2822C67.3063 84.5724 68.2494 84.9896 69.0475 85.5337L68.1497 87.7102C67.3335 87.1661 66.472 86.7761 65.5651 86.5403C64.6582 86.2864 63.7786 86.1594 62.9261 86.1594C61.856 86.1594 60.9763 86.2955 60.2871 86.5675C59.5979 86.8396 59.09 87.2023 58.7636 87.6558C58.4552 88.1092 58.3011 88.6171 58.3011 89.1793C58.3011 89.8504 58.5096 90.3855 58.9268 90.7845C59.3621 91.1835 59.9153 91.5009 60.5864 91.7367C61.2756 91.9725 62.0283 92.1901 62.8445 92.3896C63.6607 92.571 64.4768 92.7796 65.293 93.0154C66.1274 93.2512 66.8801 93.5595 67.5511 93.9404C68.2404 94.3213 68.7935 94.8291 69.2107 95.4639C69.6279 96.0987 69.8364 96.9149 69.8364 97.9125C69.8364 98.8738 69.5735 99.7716 69.0475 100.606C68.5215 101.422 67.7053 102.084 66.5989 102.592C65.5107 103.082 64.1322 103.326 62.4636 103.326Z" fill="#7C7C7C"/>
<path d="M31.5944 34.7183L40.1277 57.7793L63.1888 66.3127L40.1277 74.846L31.5944 97.907L23.061 74.846L0 66.3127L23.061 57.7793L31.5944 34.7183Z" fill="url(#paint0_linear_28_377)"/>
<path d="M394.124 64.1388V68.8286H52.8842V64.1388H394.124Z" fill="#FFA800"/>
<defs>
<linearGradient id="paint0_linear_28_377" x1="2.1007" y1="66.3126" x2="59.51" y2="66.3127" gradientUnits="userSpaceOnUse">
<stop stop-color="#FFC75B"/>
<stop offset="1" stop-color="#FFA800"/>
</linearGradient>
</defs>
</svg>
